<svg xmlns="http://www.w3.org/2000/svg" width="106.95" height="23" viewBox="0 0 106.95 23">
    <g data-name="그룹 13414">
        <path data-name="패스 5537" d="M354.221 242.424h3.451v10.237a8.352 8.352 0 0 1 .8-1.013 5.229 5.229 0 0 1 1.015-.842 5.175 5.175 0 0 1 1.27-.585 5.281 5.281 0 0 1 1.565-.214 4.972 4.972 0 0 1 3.921 1.556 6.077 6.077 0 0 1 1.382 4.187v9.505h-3.451v-8.467a3.967 3.967 0 0 0-.827-2.7 2.946 2.946 0 0 0-2.342-.946 3.176 3.176 0 0 0-2.412.974 3.8 3.8 0 0 0-.926 2.723v8.411h-3.451z" style="fill:#0080dd" transform="translate(-354.221 -242.424)"/>
        <path data-name="패스 5538" d="M444.9 282.778h3.451v14.937H444.9z" transform="translate(-427.165 -274.885)" style="fill:#0080dd"/>
        <path data-name="패스 5539" d="M478.891 281.967h3.509l3 10.241 3.31-10.3h2.914l3.338 10.3 3.055-10.241h3.423l-4.894 15.05h-3.055L490.15 286.8l-3.366 10.212h-3.055z" transform="translate(-454.506 -274.187)" style="fill:#0080dd"/>
        <path data-name="패스 5540" d="M762.3 242.424h3.451v14.513l6.2-6.62h4.158l-5.941 6.082 6.139 8.855h-3.961l-4.5-6.45-2.094 2.178v4.272H762.3z" transform="translate(-682.482 -242.424)" style="fill:#0080dd"/>
        <path data-name="패스 5541" d="M843.759 292.307a7.988 7.988 0 0 0 1.745.854 6.945 6.945 0 0 0 2.419.467 2.894 2.894 0 0 0 1.712-.438 1.372 1.372 0 0 0 .608-1.171v-.057a1.084 1.084 0 0 0-.269-.733 2.254 2.254 0 0 0-.736-.537 8.587 8.587 0 0 0-1.075-.424q-.609-.2-1.259-.395-.821-.226-1.655-.536a6 6 0 0 1-1.5-.8 4.01 4.01 0 0 1-1.089-1.228 3.557 3.557 0 0 1-.424-1.807v-.056a4.275 4.275 0 0 1 .41-1.891 4.219 4.219 0 0 1 1.132-1.44 5.052 5.052 0 0 1 1.7-.9 6.82 6.82 0 0 1 2.079-.311 9.417 9.417 0 0 1 2.857.458 13.048 13.048 0 0 1 2.97 1.446l-1.958 2.1a8.734 8.734 0 0 0-1.917-.88 6.267 6.267 0 0 0-2.037-.382 2.481 2.481 0 0 0-1.542.423 1.3 1.3 0 0 0-.552 1.072v.057a.97.97 0 0 0 .283.692 2.776 2.776 0 0 0 .75.536 8.343 8.343 0 0 0 1.075.452q.608.212 1.259.409.82.254 1.641.593a6.881 6.881 0 0 1 1.485.833 4.14 4.14 0 0 1 1.089 1.2 3.284 3.284 0 0 1 .424 1.722v.057a4.676 4.676 0 0 1-.424 2.061 4.026 4.026 0 0 1-1.174 1.453 5.27 5.27 0 0 1-1.768.875 7.778 7.778 0 0 1-2.178.3 9.977 9.977 0 0 1-3.268-.572 11.731 11.731 0 0 1-2.767-1.378z" transform="translate(-746.433 -273.373)" style="fill:#0080dd"/>
        <path data-name="패스 5542" d="M607.324 284.2a4.3 4.3 0 1 1-4.3 4.3 4.306 4.306 0 0 1 4.3-4.3m0-3.451a7.752 7.752 0 1 0 7.751 7.752 7.751 7.751 0 0 0-7.751-7.752z" transform="translate(-551.582 -273.255)" style="fill:#0080dd"/>
        <path data-name="패스 5543" d="M700.905 285.273a2.946 2.946 0 0 0-2.342-.946 3.176 3.176 0 0 0-2.412.974 3.8 3.8 0 0 0-.926 2.723v8.411h-3.451V281.5h3.451v2.339a8.338 8.338 0 0 1 .8-1.013 5.238 5.238 0 0 1 1.015-.842 5.176 5.176 0 0 1 1.27-.585 5.281 5.281 0 0 1 1.565-.214 4.971 4.971 0 0 1 3.921 1.556l-2.667 2.824z" transform="translate(-625.75 -273.605)" style="fill:#0080dd"/>
        <path data-name="패스 5544" d="M441.838 244.755a2.325 2.325 0 1 1 2.325 2.329 2.327 2.327 0 0 1-2.325-2.329z" transform="translate(-424.7 -242.424)" style="fill-rule:evenodd;fill:#0080dd"/>
    </g>
</svg>
